<?xml version="1.0" encoding="UTF-8"?>
<svg xmlns="http://www.w3.org/2000/svg" width="125" height="32" viewBox="0 0 125 32" fill="none">
  <path d="M18.6763 0.399083H9.8012C9.60261 0.399083 9.40583 0.399083 9.21085 0.417389C6.71818 0.569911 4.37692 1.68148 2.66512 3.52514C0.953319 5.36882 6.58249e-05 7.80553 0 10.3378V19.3373C0 19.5248 0.0734191 19.7045 0.204106 19.8369C0.334793 19.9694 0.512042 20.0439 0.696862 20.0439H8.87325C10.2521 20.0439 11.6175 19.7686 12.8914 19.2335C14.1653 18.6984 15.3228 17.9141 16.2978 16.9255C17.2728 15.9368 18.0462 14.7631 18.5739 13.4713C19.1016 12.1795 19.3731 10.795 19.3731 9.3968V1.0984C19.3711 0.912256 19.2969 0.734396 19.1664 0.603456C19.0361 0.472516 18.8599 0.399074 18.6763 0.399083ZM16.6904 9.44622C16.6904 11.534 15.8725 13.5362 14.4167 15.0125C12.9608 16.4887 10.9863 17.3181 8.92741 17.3181H3.4139C3.22909 17.3181 3.05184 17.2436 2.92115 17.1111C2.79046 16.9786 2.71704 16.7988 2.71704 16.6114V10.3213C2.71698 8.49521 3.40431 6.738 4.63868 5.4084C5.87304 4.07881 7.56135 3.27713 9.35889 3.16705C9.4997 3.15789 9.64233 3.15423 9.78495 3.15423H15.9899C16.0816 3.154 16.1724 3.17208 16.2571 3.20749C16.3419 3.24289 16.4189 3.29492 16.4838 3.36055C16.5487 3.4262 16.6002 3.50418 16.6354 3.59002C16.6705 3.67588 16.6886 3.76791 16.6886 3.86087L16.6904 9.44622Z" fill="#FFD36C"></path>
  <path d="M13.5653 5.58169H9.74884C9.65496 5.58169 9.56831 5.58169 9.46901 5.59085C8.29157 5.66312 7.18571 6.18834 6.37715 7.05926C5.56859 7.9302 5.11829 9.08119 5.11814 10.2773V14.1547C5.11814 14.2476 5.13623 14.3397 5.17136 14.4255C5.20649 14.5114 5.25798 14.5894 5.32289 14.655C5.38779 14.7206 5.46482 14.7727 5.54958 14.8081C5.63432 14.8435 5.72515 14.8616 5.81681 14.8613H8.93463C10.3476 14.8613 11.7027 14.2922 12.7018 13.279C13.7009 12.2659 14.2622 10.8918 14.2622 9.45904V6.29016C14.2624 6.1972 14.2446 6.10512 14.2097 6.01919C14.1748 5.93324 14.1235 5.85512 14.0587 5.78931C13.994 5.7235 13.9171 5.67129 13.8324 5.63566C13.7478 5.60004 13.657 5.58169 13.5653 5.58169Z" fill="#FFD36C"></path>
  <path d="M86.5354 17.481C84.6579 15.5478 83.7209 13.1405 83.7209 10.1968C83.7209 7.34279 84.7174 4.93547 86.6816 2.973C88.6747 1.01052 91.1666 0.0292857 94.1576 0.0292857C97.1779 0.0292857 99.6693 1.01052 101.605 2.973C103.54 4.90618 104.508 7.31411 104.508 10.1968C104.508 13.0819 103.54 15.5185 101.576 17.4517C99.6404 19.3831 97.1472 20.335 94.1287 20.335C90.9621 20.335 88.44 19.3831 86.5354 17.481ZM89.8193 5.55973C88.6747 6.80824 88.1187 8.35332 88.1187 10.1968C88.1187 12.1007 88.6747 13.6751 89.7598 14.9236C90.8736 16.1739 92.3396 16.7982 94.1864 16.7982C95.9755 16.7982 97.4361 16.1739 98.5193 14.8943C99.6332 13.6128 100.189 12.0696 100.189 10.1968C100.189 8.3527 99.6326 6.80701 98.5193 5.55973C97.4361 4.31121 95.9683 3.68696 94.1864 3.68696C92.4046 3.68696 90.9621 4.31121 89.8193 5.55973Z" fill="#FFD36C"></path>
  <path d="M28.2211 0.386268H32.59V16.5895H41.5319V20.0073H28.2211V0.386268Z" fill="white"></path>
  <path d="M57.4803 16.5895V20.0073H43.8174V0.386268H56.9242V3.80595H48.1864V8.14645H56.0143V11.4416H48.1864V16.5858L57.4803 16.5895Z" fill="white"></path>
  <path d="M70.8199 16.3808H70.1754L64.781 10.4055C64.7693 10.4166 64.7552 10.425 64.7401 10.4301C64.7247 10.4351 64.7085 10.4367 64.6926 10.4348V20.0073H60.5006V0.060415H61.1451L70.4986 11.0297L79.8214 0.060415H80.437V20.0146H76.2143V10.4348C76.1854 10.4055 76.1565 10.4055 76.0969 10.4055L70.8199 16.3808Z" fill="white"></path>
  <path d="M112.159 20.0073H107.826V0H108.47C109.848 1.36751 111.872 3.26957 114.54 5.7373C117.208 8.17574 119.234 10.0485 120.55 11.3574H120.667V0.38627H125V20.3405H124.388L112.247 8.68101H112.159V20.0073Z" fill="white"></path>
  <path d="M33.3356 30.9803C33.028 31.3054 32.6568 31.5617 32.2457 31.7329C31.8348 31.9041 31.3931 31.9863 30.949 31.9744C29.1436 31.9744 27.6578 30.876 27.6578 28.6481C27.6578 26.4201 29.1526 25.3236 30.949 25.3236C31.3654 25.3095 31.7801 25.3851 32.1658 25.5454C32.5512 25.7056 32.8989 25.9471 33.1858 26.2535L32.2181 27.286C31.8774 26.9717 31.4348 26.7952 30.9742 26.7899C29.9452 26.7899 29.1906 27.5533 29.1906 28.6481C29.1906 29.8471 29.9939 30.4787 30.949 30.4787C31.1981 30.4884 31.4469 30.4472 31.6799 30.3575C31.9132 30.268 32.1262 30.1318 32.3066 29.957L33.3356 30.9803Z" fill="white"></path>
  <path d="M38.9268 25.503H40.3963V31.7822H38.952L38.878 30.8668C38.5169 31.5991 37.5583 31.9652 36.8669 31.9762C35.0344 31.9872 33.6768 30.8412 33.6768 28.6371C33.6768 26.4732 35.0958 25.3419 36.9048 25.351C37.7352 25.351 38.5296 25.7465 38.878 26.3707L38.9268 25.503ZM35.2041 28.6352C35.2041 29.8343 36.0202 30.5465 37.0384 30.5465C39.4503 30.5465 39.4503 26.7387 37.0384 26.7387C36.0238 26.7387 35.2041 27.438 35.2041 28.6352Z" fill="white"></path>
  <path d="M45.7347 27.1707C45.5291 26.9783 45.2875 26.8295 45.0243 26.7334C44.7611 26.6371 44.4814 26.5953 44.202 26.6105C43.4798 26.6105 43.0718 26.8394 43.0718 27.2348C43.0718 27.6302 43.4329 27.8719 44.2272 27.9231C45.3953 28 46.8775 28.2673 46.8775 29.9368C46.8775 31.0462 45.9856 32 44.2146 32C43.2343 32 42.254 31.8352 41.3495 30.8796L42.1042 29.7812C42.5429 30.2773 43.5484 30.6471 44.2399 30.66C44.8176 30.6728 45.3574 30.367 45.3574 29.9075C45.3574 29.4481 44.9963 29.2961 44.1261 29.2467C42.9581 29.157 41.5644 28.7231 41.5644 27.297C41.5644 25.8709 43.0466 25.3346 44.1767 25.3346C45.1444 25.3346 45.8719 25.5176 46.5886 26.1638L45.7347 27.1707Z" fill="white"></path>
  <path d="M49.5277 23.7327C49.5277 24.9428 47.7224 24.9428 47.7224 23.7327C47.7224 22.5227 49.5277 22.5172 49.5277 23.7327ZM47.8578 25.4773V31.7822H49.3887V25.4773H47.8578Z" fill="white"></path>
  <path d="M55.3319 31.7822V28.487C55.3319 27.5313 54.8156 26.8046 53.8371 26.8046C52.8947 26.8046 52.2538 27.6082 52.2538 28.5638V31.773H50.7301V25.4902H52.0985L52.1996 26.3432C52.8279 25.719 53.4634 25.4005 54.2342 25.4005C55.6912 25.4005 56.861 26.508 56.861 28.4833V31.7785L55.3319 31.7822Z" fill="white"></path>
  <path d="M64.3387 28.6481C64.3387 30.4586 63.1201 31.9231 61.109 31.9231C59.0978 31.9231 57.8937 30.4586 57.8937 28.6481C57.8937 26.8375 59.1249 25.3748 61.0964 25.3748C63.0678 25.3748 64.3387 26.8522 64.3387 28.6481ZM59.4264 28.6481C59.4264 29.6037 59.9915 30.4952 61.109 30.4952C62.2265 30.4952 62.7934 29.6037 62.7934 28.6481C62.7934 27.6924 62.1398 26.7899 61.109 26.7899C60.0041 26.7899 59.4264 27.7071 59.4264 28.6481Z" fill="white"></path>
</svg>
